<!--?xml version="1.0" standalone="no"?-->
              <svg id="sw-js-blob-svg" viewBox="0 0 100 100" xmlns="http://www.w3.org/2000/svg" version="1.1">
                    <defs> 
                        <linearGradient id="sw-gradient" x1="0" x2="1" y1="1" y2="0">
                            <stop id="stop1" stop-color="rgba(168, 85, 247, 1)" offset="0%"></stop>
                            <stop id="stop2" stop-color="rgba(236, 72, 153, 1)" offset="100%"></stop>
                        </linearGradient>
                    </defs>
                <path fill="none" d="M11.7,-18.1C15.8,-17.8,20.3,-16.1,19.5,-12.8C18.8,-9.5,12.8,-4.8,15.5,1.6C18.3,8,29.9,16,29.5,17.2C29.1,18.5,16.7,12.9,9.8,11.4C2.9,9.9,1.4,12.4,-1.5,15C-4.4,17.6,-8.8,20.3,-11.8,19.5C-14.8,18.7,-16.3,14.5,-14.9,10.7C-13.4,6.9,-8.8,3.4,-12.9,-2.3C-16.9,-8.1,-29.6,-16.3,-30.3,-18.7C-30.9,-21.1,-19.7,-17.8,-12.6,-16.4C-5.6,-15,-2.8,-15.5,0.5,-16.3C3.8,-17.2,7.5,-18.4,11.7,-18.1Z" width="100%" height="100%" transform="translate(50 50)" stroke-width="1" style="transition: 0.3s;" stroke="url(#sw-gradient)"></path>
              </svg>