<!--?xml version="1.0" standalone="no"?-->
              <svg id="sw-js-blob-svg" viewBox="0 0 100 100" xmlns="http://www.w3.org/2000/svg" version="1.1">
                    <defs> 
                        <linearGradient id="sw-gradient" x1="0" x2="1" y1="1" y2="0">
                            <stop id="stop1" stop-color="rgba(168, 85, 247, 1)" offset="0%"></stop>
                            <stop id="stop2" stop-color="rgba(237.995, 0, 105.309, 1)" offset="100%"></stop>
                        </linearGradient>
                    </defs>
                <path fill="url(#sw-gradient)" d="M19.1,-27C26.2,-29,34.4,-26.8,33.4,-21.6C32.5,-16.4,22.4,-8.2,22.2,-0.1C22,7.9,31.5,15.8,31.4,19.2C31.3,22.6,21.5,21.5,14.7,21.3C7.8,21.2,3.9,22,-2.1,25.6C-8.1,29.3,-16.2,35.7,-19,33.5C-21.7,31.3,-19.1,20.4,-16.1,13.3C-13.2,6.3,-9.9,3.2,-8.5,0.8C-7.2,-1.6,-7.6,-3.1,-10.5,-10C-13.3,-16.8,-18.5,-28.9,-17.1,-30.2C-15.8,-31.5,-7.9,-22,-0.9,-20.4C6,-18.8,12,-25,19.1,-27Z" width="100%" height="100%" transform="translate(50 50)" stroke-width="0" style="transition: 0.3s;" stroke="url(#sw-gradient)"></path>
              </svg>